<?xml version="1.0" standalone="no"?>
<!DOCTYPE svg PUBLIC "-//W3C//DTD SVG 20010904//EN"
 "http://www.w3.org/TR/2001/REC-SVG-20010904/DTD/svg10.dtd">
<svg version="1.0" xmlns="http://www.w3.org/2000/svg"
 width="1024.000000pt" height="1024.000000pt" viewBox="0 0 1024.000000 1024.000000"
 preserveAspectRatio="xMidYMid meet">

<g transform="translate(0.000000,1024.000000) scale(0.100000,-0.100000)"
fill="#000000" stroke="none">
<path d="M3926 7650 c-428 -23 -815 -120 -1151 -288 -105 -52 -169 -90 -480
-287 -77 -49 -205 -123 -285 -165 -168 -88 -189 -110 -238 -246 -43 -119 -59
-198 -78 -394 -24 -250 -8 -414 48 -493 43 -61 122 -101 236 -121 l32 -5 0
108 c0 270 93 500 247 610 77 56 119 67 191 54 80 -15 213 -68 257 -103 84
-67 154 -185 189 -320 20 -74 38 -335 27 -395 -6 -36 -9 -40 -36 -40 l-30 0
-7 135 c-7 152 -16 206 -51 301 -48 134 -128 235 -227 288 -120 64 -219 51
-318 -42 -63 -60 -101 -124 -138 -232 -24 -70 -28 -99 -32 -235 -3 -117 0
-171 11 -221 38 -161 104 -275 200 -345 56 -41 57 -44 31 -44 -16 0 -72 -5
-124 -10 -52 -5 -156 -14 -230 -20 -160 -12 -190 -18 -170 -30 40 -25 338 -37
1975 -80 856 -23 1524 -44 1956 -62 241 -10 378 -9 870 5 321 10 688 20 814
23 439 10 799 33 929 60 l30 6 -26 14 c-38 20 -304 46 -583 57 l-60 2 60 47
c33 26 71 66 85 88 14 22 41 53 60 69 34 27 41 28 175 34 231 10 288 32 315
123 6 21 16 125 21 229 15 265 5 353 -45 427 -13 19 -30 67 -39 106 -17 76
-52 153 -86 189 -64 67 -232 151 -426 211 -213 67 -302 88 -697 166 -208 42
-388 81 -400 87 -13 7 -68 42 -123 79 -182 122 -405 251 -629 364 -404 204
-573 256 -921 287 -164 14 -918 20 -1129 9z m1149 -191 c352 -25 465 -57 815
-230 274 -135 590 -317 590 -339 0 -27 -1047 -17 -1214 11 -106 18 -139 42
-342 239 -120 117 -223 207 -279 245 -48 33 -90 65 -92 72 -3 7 9 14 29 16 44
6 318 -1 493 -14z m-1016 -24 c97 -16 199 -51 261 -90 116 -73 310 -249 406
-370 72 -90 82 -125 34 -125 -26 0 -33 7 -67 73 -49 93 -64 98 -264 99 -159 0
-188 -7 -228 -58 -11 -14 -23 -45 -27 -70 l-6 -44 -107 1 c-58 1 -144 4 -191
7 l-85 7 -3 42 c-3 45 31 316 53 427 20 96 35 116 88 116 23 0 84 -7 136 -15z
m-406 -17 c8 -12 -1 -80 -32 -255 -24 -131 -45 -248 -48 -261 l-5 -23 -182 2
c-287 3 -691 30 -726 49 -27 14 -31 37 -14 78 41 100 229 227 467 316 154 58
423 117 506 112 13 0 29 -8 34 -18z m-1683 -793 c0 -43 -27 -90 -79 -140 -33
-31 -65 -70 -71 -86 -8 -18 -20 -29 -33 -29 -18 0 -19 4 -14 63 5 51 19 106
51 193 6 15 146 13 146 -1z m4485 -135 c359 -63 546 -120 589 -182 9 -12 16
-40 16 -61 0 -31 -7 -46 -33 -72 -28 -28 -41 -33 -102 -39 -133 -13 -438 22
-547 64 -119 45 -347 265 -311 300 25 25 217 20 388 -10z m-867 -101 c26 -6
89 -31 140 -55 171 -80 266 -204 330 -431 25 -92 27 -110 27 -300 0 -111 -3
-205 -7 -208 -4 -4 -24 -8 -43 -9 l-37 -1 -2 185 c-2 157 -6 196 -24 258 -58
191 -169 340 -302 405 -60 29 -73 32 -165 32 -91 0 -105 -3 -158 -30 -74 -37
-165 -133 -206 -217 -44 -89 -71 -205 -78 -333 -6 -123 11 -285 31 -285 10 0
76 -142 76 -163 0 -4 -118 -7 -262 -7 l-262 0 45 48 c25 26 56 64 68 85 l23
37 114 0 c105 0 115 2 110 18 -3 9 -10 67 -16 129 -20 199 14 419 87 573 42
88 149 201 225 238 82 40 197 52 286 31z m1817 -86 c92 -13 197 -17 450 -17
l330 -1 -3 -25 c-6 -41 -45 -101 -77 -118 -23 -12 -74 -17 -230 -22 -317 -8
-462 8 -538 62 -24 18 -87 111 -87 131 0 10 22 9 155 -10z m-4852 -253 c82
-75 122 -193 122 -365 0 -104 -2 -114 -32 -175 -52 -107 -102 -150 -171 -150
-96 0 -169 75 -214 220 -18 60 -23 96 -22 185 1 128 21 194 80 263 38 45 73
60 147 61 42 1 52 -4 90 -39z m3065 -69 c87 -45 155 -159 179 -300 25 -145 -7
-260 -99 -352 -53 -53 -118 -79 -197 -79 -127 1 -225 114 -253 294 -30 194 56
409 179 446 53 16 151 11 191 -9z m1792 -397 c259 -4 513 -2 629 4 196 11 231
8 231 -22 0 -8 -8 -17 -17 -21 -35 -14 -757 -27 -1222 -21 -261 4 -476 8 -478
10 -10 10 14 40 41 52 25 12 68 13 206 9 96 -3 371 -8 610 -11z m-3750 -143
c272 -9 502 -21 511 -27 9 -5 40 -38 70 -74 29 -36 59 -71 66 -78 7 -7 13 -17
13 -21 0 -4 -123 -12 -272 -19 -408 -18 -970 -41 -1080 -44 l-97 -3 49 50 c47
48 140 188 140 210 0 22 23 32 63 28 23 -2 265 -12 537 -22z m3271 -111 c24
-7 59 -34 112 -89 42 -43 77 -84 77 -91 0 -11 -61 -12 -307 -7 -170 4 -407 7
-528 7 -121 0 -226 4 -234 9 -17 11 -18 10 74 121 l60 72 355 -6 c195 -4 371
-11 391 -16z"/>
<path d="M2411 5904 c-53 -38 -78 -168 -50 -267 15 -56 59 -100 97 -100 65 0
107 79 107 203 -1 136 -77 218 -154 164z"/>
<path d="M5430 5792 c-47 -47 -64 -105 -56 -186 11 -104 66 -171 143 -171 56
0 98 40 120 114 39 135 -32 281 -136 281 -25 0 -42 -9 -71 -38z"/>
<path d="M1318 4479 c-150 -22 -267 -134 -302 -289 -23 -100 -23 -708 0 -795
30 -117 94 -199 192 -247 64 -31 72 -33 182 -33 105 0 120 2 171 28 63 31 136
103 169 167 25 49 50 156 50 218 l0 42 -120 0 -120 0 0 -67 c0 -121 -50 -183
-147 -183 -61 0 -104 25 -129 76 -18 36 -19 64 -19 404 0 332 2 368 18 398 25
46 72 72 130 72 98 0 146 -58 147 -177 l0 -63 121 0 122 0 -6 78 c-20 260
-204 409 -459 371z"/>
<path d="M2181 4433 c-68 -259 -311 -1278 -311 -1305 0 -5 55 -7 123 -6 l122
3 13 70 c7 39 18 94 23 123 l10 52 164 0 164 0 10 -52 c6 -29 17 -84 24 -123
l13 -70 122 -3 c100 -2 122 0 122 12 0 28 -249 1067 -311 1299 l-10 37 -134 0
-134 0 -10 -37z m203 -578 c24 -110 47 -212 51 -227 l7 -28 -117 0 c-106 0
-116 2 -111 18 6 21 106 459 107 469 2 25 24 -55 63 -232z"/>
<path d="M2920 3806 c0 -366 0 -669 0 -673 0 -5 53 -8 118 -8 l117 0 2 250 2
250 46 0 46 0 93 -241 c51 -133 96 -246 100 -253 5 -7 48 -11 128 -11 120 0
120 0 114 23 -3 12 -47 128 -99 258 l-94 236 46 34 c88 65 131 193 131 389 0
212 -60 340 -180 386 -37 15 -90 18 -307 22 l-263 4 0 -666z m457 428 c16 -12
33 -36 40 -55 15 -44 16 -230 1 -280 -19 -65 -36 -74 -154 -77 l-104 -4 0 222
0 222 95 -4 c75 -3 100 -8 122 -24z"/>
<path d="M4170 3796 l0 -676 120 0 120 0 0 255 0 255 47 -2 48 -3 96 -250 96
-250 127 -3 c69 -1 126 -1 126 0 0 2 -45 118 -100 258 l-100 255 41 34 c87 72
119 157 126 332 9 206 -25 331 -107 402 -65 56 -89 60 -377 64 l-263 5 0 -676z
m457 438 c16 -12 33 -36 40 -55 15 -44 16 -230 1 -280 -19 -64 -36 -73 -154
-77 l-104 -4 0 222 0 222 95 -4 c75 -3 100 -8 122 -24z"/>
<path d="M5100 3795 l0 -675 320 0 320 0 0 115 0 115 -200 0 -200 0 0 170 0
170 170 0 170 0 0 115 0 115 -170 0 -171 0 3 158 3 157 198 3 197 2 0 115 0
115 -320 0 -320 0 0 -675z"/>
<path d="M5892 3798 l3 -673 118 -3 117 -3 0 392 c0 216 3 390 6 386 4 -3 80
-178 170 -389 l163 -383 121 -3 120 -3 0 676 0 675 -115 0 -115 0 0 -412 c0
-230 -4 -408 -9 -403 -4 6 -86 191 -181 413 l-173 402 -114 0 -113 0 2 -672z"/>
<path d="M6868 4355 l-3 -115 123 0 122 0 0 -560 0 -560 115 0 115 0 0 560 0
560 115 0 115 0 0 115 0 115 -349 0 -350 0 -3 -115z"/>
<path d="M7891 4433 c-61 -232 -289 -1179 -306 -1276 l-7 -38 123 3 124 3 20
120 21 120 166 3 165 2 24 -122 25 -123 122 -3 c88 -2 122 1 122 9 0 29 -246
1058 -311 1302 l-10 37 -134 0 -134 0 -10 -37z m199 -568 c28 -127 53 -238 56
-247 5 -16 -5 -18 -111 -18 -114 0 -115 0 -110 23 2 12 20 90 39 172 18 83 41
185 51 228 9 43 18 77 20 75 2 -2 27 -107 55 -233z"/>
<path d="M8630 3795 l0 -675 313 2 312 3 3 113 2 112 -195 0 -195 0 0 560 0
560 -120 0 -120 0 0 -675z"/>
</g>
</svg>
